# xmcd
#
# Track frame offsets:
#	150
#	830
#	15012
#	30204
#	50809
#	63709
#
# Disc length: 855 seconds
#
# Revision: 0
# Processed by: cddbd v1.5.1PL2 Copyright (c) Steve Scherf et al.
# Submitted via: dBpowerAMP V4.0
#
DISCID=35035506
DTITLE=Bull Halsey - The Mighty Fists Of Joe Fraizer
DYEAR=1900
DGENRE=Rock
TTITLE0=Tape Is Rolling
TTITLE1=Boss Card
TTITLE2=Guv'ness
TTITLE3=Grab The Wheel
TTITLE4=Green
TTITLE5=Want To Stop The Tape?
EXTD=
EXTT0=
EXTT1=
EXTT2=
EXTT3=
EXTT4=
EXTT5=
PLAYORDER=
